<svg width="169" height="33" viewBox="0 0 169 33" fill="none" xmlns="http://www.w3.org/2000/svg">
<g clip-path="url(#clip0_429_28)">
<path d="M7.98252 25.7235C10.215 25.7235 12.0644 25.2285 13.5295 24.2385C14.9947 23.2471 15.7279 21.8061 15.7279 19.9155C15.6148 17.3649 13.7326 15.4522 10.08 14.1776L8.11745 13.3567C7.6895 13.2192 7.38421 13.0845 7.20431 12.947C7.12117 12.8903 7.05309 12.8139 7.00604 12.7245C6.95899 12.6351 6.93441 12.5354 6.93445 12.4341C6.93445 11.8649 7.30652 11.5816 8.05067 11.5816C8.97472 11.5816 9.66162 12.0587 10.1127 13.0157L15.1528 11.5802C13.9357 8.52775 11.5901 7.00287 8.11745 7.00287C6.04311 7.00287 4.31768 7.55012 2.94251 8.64325C1.56734 9.735 0.879073 11.1595 0.879073 12.9113C0.879073 13.4585 0.958121 13.9645 1.11622 14.432C1.27431 14.8995 1.51146 15.3093 1.82629 15.6613C2.14248 16.0146 2.44641 16.3212 2.73944 16.5839C3.03246 16.8451 3.40453 17.0913 3.85702 17.3181C4.30677 17.5464 4.65023 17.7114 4.88737 17.8131C5.12452 17.9162 5.44616 18.0359 5.85094 18.172L6.42609 18.3783L8.45681 19.129C8.95155 19.3119 9.27456 19.4645 9.42039 19.5896C9.49164 19.65 9.54832 19.7259 9.5861 19.8117C9.62389 19.8975 9.64179 19.9908 9.63845 20.0846C9.63845 20.6773 9.08784 20.9742 7.98252 20.9742C6.35931 20.9742 5.38892 20.2455 5.07409 18.788L0 19.9499C0.631024 23.7999 3.29277 25.7235 7.98252 25.7235ZM23.8413 25.7235C26.0737 25.7235 27.7187 24.8572 28.7791 23.1275V25.3481H35.7462V7.37825H28.7791V17.2178C28.7791 19.2445 28.0908 20.2565 26.7156 20.2565C25.3173 20.2565 24.6181 19.2445 24.6181 17.2178V7.37825H17.651V17.9011C17.651 23.1165 19.7144 25.7235 23.8413 25.7235ZM45.7881 25.3481V15.51C45.7881 13.4819 46.475 12.4685 47.8502 12.4685C49.2485 12.4685 49.949 13.4819 49.949 15.51V25.3481H56.9148V14.8266C56.9148 9.61125 54.8528 7.00287 50.7259 7.00287C48.4935 7.00287 46.8471 7.86912 45.7881 9.59887V7.37825H38.8196V25.3481H45.7881ZM66.7536 25.3481V15.51C66.7536 13.4819 67.4405 12.4685 68.8171 12.4685C70.214 12.4685 70.9132 13.4819 70.9132 15.51V25.3481H77.8817V14.8266C77.8817 9.61125 75.8183 7.00287 71.6914 7.00287C69.459 7.00287 67.8126 7.86912 66.7536 9.59887V7.37825H59.7851V25.3481H66.7536ZM88.5315 33L99.8286 7.37825H92.5548L89.1039 16.5688L86.0265 7.37825H78.416L85.8234 23.606L81.6979 33H88.5315ZM107.162 25.7235C109.395 25.7235 111.244 25.2285 112.709 24.2385C114.176 23.2471 114.909 21.8061 114.909 19.9155C114.796 17.3649 112.912 15.4522 109.26 14.1776L107.297 13.3567C106.869 13.2192 106.565 13.0845 106.384 12.947C106.301 12.8903 106.233 12.8139 106.186 12.7245C106.139 12.6351 106.114 12.5354 106.114 12.4341C106.114 11.8649 106.486 11.5816 107.231 11.5816C108.155 11.5816 108.843 12.0587 109.294 13.0157L114.334 11.5802C113.116 8.52775 110.771 7.00287 107.299 7.00287C105.224 7.00287 103.499 7.55012 102.124 8.64325C100.747 9.73637 100.06 11.1595 100.06 12.9126C100.06 13.4599 100.139 13.9659 100.296 14.4334C100.454 14.9009 100.691 15.3106 101.007 15.6626C101.322 16.016 101.628 16.3226 101.921 16.5853C102.214 16.8465 102.586 17.0926 103.037 17.3195C103.487 17.5477 103.831 17.7128 104.069 17.8145C104.304 17.9176 104.627 18.0373 105.032 18.1734L105.607 18.3796L107.637 19.1304C108.133 19.3133 108.454 19.4659 108.6 19.591C108.672 19.6512 108.729 19.7271 108.767 19.8129C108.805 19.8987 108.823 19.9921 108.82 20.086C108.82 20.6786 108.268 20.9756 107.162 20.9756C105.54 20.9756 104.57 20.2469 104.254 18.7894L99.1798 19.9499C99.8122 23.7999 102.473 25.7235 107.162 25.7235ZM120.519 6.28513C121.759 6.28513 122.717 5.9895 123.395 5.39687C124.069 4.80562 124.409 4.0535 124.409 3.14188C124.409 2.20963 124.081 1.45063 123.427 0.87175C122.773 0.28875 121.804 0 120.519 0C119.234 0 118.263 0.290125 117.609 0.87175C116.955 1.452 116.628 2.20962 116.628 3.14325C116.628 4.0535 116.967 4.80563 117.643 5.39825C118.32 5.9895 119.279 6.28513 120.519 6.28513ZM124.002 25.3481V7.37825H117.033V25.3481H124.002ZM134.551 25.7235C136.919 25.7235 138.609 24.8572 139.624 23.1275V25.3481H146.591V0.649H139.624V9.63325C138.609 7.88013 136.919 7.00287 134.55 7.00287C132.161 7.00287 130.17 7.88563 128.58 9.65113C126.991 11.4153 126.195 13.6524 126.195 16.3639C126.195 19.0726 126.991 21.3111 128.58 23.0766C130.17 24.8408 132.162 25.7235 134.551 25.7235ZM136.446 20.361C135.452 20.361 134.658 19.9842 134.061 19.2335C133.462 18.4814 133.164 17.5244 133.164 16.3639C133.164 15.202 133.457 14.2464 134.043 13.4943C134.652 12.7421 135.452 12.3668 136.444 12.3668C137.437 12.3668 138.231 12.7421 138.829 13.4943C139.426 14.245 139.725 15.202 139.725 16.3639C139.725 17.5244 139.426 18.4814 138.829 19.2335C138.231 19.9842 137.438 20.361 136.446 20.361ZM159.203 25.7235C162.743 25.7235 165.506 24.6867 167.49 22.616L164.614 18.7206C163.194 19.8825 161.593 20.4627 159.811 20.4627C158.459 20.4627 157.359 20.1547 156.513 19.5415C155.668 18.9255 155.246 18.3329 155.246 17.7636H168.335C168.448 17.3539 168.504 16.819 168.504 16.159C168.504 13.3347 167.585 11.1031 165.748 9.46275C163.91 7.82238 161.56 7.00287 158.695 7.00287C155.629 7.00287 153.205 7.9255 151.424 9.77075C149.643 11.6146 148.751 13.8352 148.751 16.4312C148.751 19.096 149.692 21.3111 151.575 23.0766C153.459 24.8408 156.001 25.7235 159.203 25.7235ZM162.213 14.5186H155.246C155.291 13.6758 155.652 13.0336 156.328 12.5881C157.004 12.144 157.805 11.9226 158.729 11.9226C159.653 11.9226 160.455 12.1495 161.131 12.606C161.808 13.0611 162.168 13.6991 162.213 14.5186Z" fill="#2E7565"/>
</g>
<defs>
<clipPath id="clip0_429_28">
<rect width="169" height="33" fill="white"/>
</clipPath>
</defs>
</svg>
